G75*
G70*
%OFA0B0*%
%FSLAX24Y24*%
%IPPOS*%
%LPD*%
%AMOC8*
5,1,8,0,0,1.08239X$1,22.5*
%
%ADD10C,0.0040*%
%ADD11C,0.0030*%
%ADD12C,0.0010*%
D10*
X004791Y002667D02*
X004791Y002947D01*
X004651Y002947D01*
X004604Y002900D01*
X004604Y002807D01*
X004651Y002760D01*
X004791Y002760D01*
X004899Y002760D02*
X005085Y002947D01*
X005193Y003040D02*
X005380Y003040D01*
X005380Y002760D01*
X005193Y002760D01*
X005085Y002760D02*
X004899Y002947D01*
X005287Y002900D02*
X005380Y002900D01*
X004496Y002760D02*
X004403Y002760D01*
X004449Y002760D02*
X004449Y003040D01*
X004496Y003040D01*
X004300Y002900D02*
X004300Y002807D01*
X004253Y002760D01*
X004159Y002760D01*
X004113Y002807D01*
X004113Y002900D01*
X004159Y002947D01*
X004253Y002947D01*
X004300Y002900D01*
X004005Y002853D02*
X003912Y002947D01*
X003865Y002947D01*
X003759Y002900D02*
X003713Y002947D01*
X003619Y002947D01*
X003573Y002900D01*
X003573Y002853D01*
X003759Y002853D01*
X003759Y002807D02*
X003759Y002900D01*
X003759Y002807D02*
X003713Y002760D01*
X003619Y002760D01*
X004005Y002760D02*
X004005Y002947D01*
X003170Y003040D02*
X003170Y002760D01*
X002983Y002760D01*
X002875Y002807D02*
X002829Y002853D01*
X002689Y002853D01*
X002689Y002900D02*
X002689Y002760D01*
X002829Y002760D01*
X002875Y002807D01*
X002829Y002947D02*
X002735Y002947D01*
X002689Y002900D01*
X002581Y002947D02*
X002441Y002947D01*
X002394Y002900D01*
X002394Y002807D01*
X002441Y002760D01*
X002581Y002760D01*
X002581Y003040D01*
X002286Y002900D02*
X002239Y002947D01*
X002099Y002947D01*
X002146Y002853D02*
X002239Y002853D01*
X002286Y002900D01*
X002146Y002853D02*
X002099Y002807D01*
X002146Y002760D01*
X002286Y002760D01*
D11*
X001761Y001880D02*
X001796Y001845D01*
X001901Y001845D01*
X001978Y001845D02*
X002048Y001845D01*
X002013Y001845D02*
X002013Y001985D01*
X002048Y001985D01*
X002013Y002055D02*
X002013Y002090D01*
X002129Y001985D02*
X002269Y001845D01*
X002350Y001845D02*
X002350Y001985D01*
X002420Y002055D01*
X002490Y001985D01*
X002490Y001845D01*
X002490Y001950D02*
X002350Y001950D01*
X002269Y001985D02*
X002129Y001845D01*
X001901Y001950D02*
X001866Y001985D01*
X001761Y001985D01*
X001796Y001915D02*
X001866Y001915D01*
X001901Y001950D01*
X001796Y001915D02*
X001761Y001880D01*
X002571Y001950D02*
X002711Y001950D01*
X002792Y001915D02*
X002792Y001880D01*
X002827Y001845D01*
X002897Y001845D01*
X002932Y001880D01*
X002827Y001950D02*
X002792Y001915D01*
X002827Y001950D02*
X002862Y001950D01*
X002827Y001950D02*
X002792Y001985D01*
X002792Y002020D01*
X002827Y002055D01*
X002897Y002055D01*
X002932Y002020D01*
X003232Y001985D02*
X003267Y001985D01*
X003337Y001915D01*
X003337Y001845D02*
X003337Y001985D01*
X003418Y001950D02*
X003418Y001915D01*
X003558Y001915D01*
X003558Y001880D02*
X003523Y001845D01*
X003453Y001845D01*
X003558Y001880D02*
X003558Y001950D01*
X003523Y001985D01*
X003453Y001985D01*
X003418Y001950D01*
X003636Y001985D02*
X003706Y001985D01*
X003671Y002020D02*
X003671Y001880D01*
X003636Y001845D01*
X003786Y001915D02*
X003786Y001950D01*
X003822Y001985D01*
X003892Y001985D01*
X003927Y001950D01*
X003927Y001880D01*
X003892Y001845D01*
X003822Y001845D01*
X003786Y001915D02*
X003927Y001915D01*
X004007Y001950D02*
X004007Y001845D01*
X004078Y001845D02*
X004078Y001950D01*
X004043Y001985D01*
X004007Y001950D01*
X004078Y001950D02*
X004113Y001985D01*
X004148Y001985D01*
X004148Y001845D01*
X004228Y001880D02*
X004228Y001950D01*
X004263Y001985D01*
X004334Y001985D01*
X004369Y001950D01*
X004369Y001880D01*
X004334Y001845D01*
X004263Y001845D01*
X004228Y001880D01*
X004448Y001985D02*
X004483Y001985D01*
X004553Y001915D01*
X004553Y001845D02*
X004553Y001985D01*
X004634Y001950D02*
X004634Y001915D01*
X004774Y001915D01*
X004774Y001880D02*
X004774Y001950D01*
X004739Y001985D01*
X004669Y001985D01*
X004634Y001950D01*
X004669Y001845D02*
X004739Y001845D01*
X004774Y001880D01*
X004851Y001845D02*
X004921Y001845D01*
X004886Y001845D02*
X004886Y002055D01*
X004921Y002055D01*
X005002Y001950D02*
X005037Y001985D01*
X005107Y001985D01*
X005142Y001950D01*
X005142Y001880D01*
X005107Y001845D01*
X005037Y001845D01*
X005002Y001915D02*
X005142Y001915D01*
X005223Y001845D02*
X005328Y001845D01*
X005363Y001880D01*
X005363Y001950D01*
X005328Y001985D01*
X005223Y001985D01*
X005444Y001985D02*
X005549Y001985D01*
X005584Y001950D01*
X005584Y001880D01*
X005549Y001845D01*
X005444Y001845D01*
X005665Y001845D02*
X005665Y001985D01*
X005735Y002055D01*
X005805Y001985D01*
X005805Y001845D01*
X005805Y001950D02*
X005665Y001950D01*
X005002Y001950D02*
X005002Y001915D01*
D12*
X004555Y000665D02*
X004525Y000635D01*
X004495Y000665D01*
X004495Y000575D01*
X004463Y000590D02*
X004448Y000605D01*
X004403Y000605D01*
X004403Y000620D02*
X004403Y000575D01*
X004448Y000575D01*
X004463Y000590D01*
X004448Y000635D02*
X004418Y000635D01*
X004403Y000620D01*
X004371Y000605D02*
X004341Y000635D01*
X004326Y000635D01*
X004294Y000620D02*
X004294Y000590D01*
X004279Y000575D01*
X004234Y000575D01*
X004202Y000575D02*
X004202Y000665D01*
X004187Y000635D02*
X004157Y000635D01*
X004142Y000620D01*
X004142Y000575D01*
X004202Y000620D02*
X004187Y000635D01*
X004234Y000635D02*
X004279Y000635D01*
X004294Y000620D01*
X004371Y000635D02*
X004371Y000575D01*
X004555Y000575D02*
X004555Y000665D01*
X004018Y000650D02*
X004003Y000665D01*
X003973Y000665D01*
X003958Y000650D01*
X003958Y000635D01*
X004018Y000575D01*
X003958Y000575D01*
X003926Y000575D02*
X003926Y000590D01*
X003866Y000650D01*
X003866Y000665D01*
X003926Y000665D01*
X003819Y000590D02*
X003819Y000575D01*
X003804Y000575D01*
X003804Y000590D01*
X003819Y000590D01*
X003804Y000575D02*
X003834Y000545D01*
X003680Y000575D02*
X003620Y000635D01*
X003620Y000650D01*
X003635Y000665D01*
X003665Y000665D01*
X003680Y000650D01*
X003680Y000575D02*
X003620Y000575D01*
X003588Y000590D02*
X003588Y000650D01*
X003573Y000665D01*
X003543Y000665D01*
X003528Y000650D01*
X003588Y000590D01*
X003573Y000575D01*
X003543Y000575D01*
X003528Y000590D01*
X003528Y000650D01*
X003496Y000635D02*
X003466Y000665D01*
X003466Y000575D01*
X003496Y000575D02*
X003436Y000575D01*
X003404Y000575D02*
X003344Y000635D01*
X003344Y000650D01*
X003359Y000665D01*
X003389Y000665D01*
X003404Y000650D01*
X003404Y000575D02*
X003344Y000575D01*
M02*
