G75*
G70*
%OFA0B0*%
%FSLAX24Y24*%
%IPPOS*%
%LPD*%
%AMOC8*
5,1,8,0,0,1.08239X$1,22.5*
%
%ADD10R,0.0197X0.0472*%
%ADD11R,0.0472X0.0197*%
%ADD12R,0.0354X0.0276*%
%ADD13R,0.0551X0.0630*%
%ADD14R,0.0740X0.0740*%
%ADD15C,0.0740*%
%ADD16C,0.0100*%
%ADD17R,0.0396X0.0396*%
D10*
X003181Y001055D03*
X003496Y001055D03*
X003811Y001055D03*
X004126Y001055D03*
X004441Y001055D03*
X004756Y001055D03*
X004756Y001922D03*
X004441Y001922D03*
X004126Y001922D03*
X003811Y001922D03*
X003496Y001922D03*
X003181Y001922D03*
D11*
X003142Y001489D03*
X004796Y001489D03*
D12*
X002723Y003521D03*
X002723Y004033D03*
D13*
X003772Y003803D03*
X004874Y003803D03*
D14*
X006922Y003851D03*
X000819Y003851D03*
D15*
X000819Y002851D03*
X000819Y001851D03*
X000819Y000851D03*
X006922Y000851D03*
X006922Y001851D03*
X006922Y002851D03*
D16*
X000850Y000850D02*
X000850Y000640D01*
X003300Y000640D01*
X003440Y000780D01*
X003440Y000990D01*
X003496Y001055D01*
X003181Y001055D02*
X003160Y001060D01*
X001340Y001060D01*
X001340Y001340D01*
X000850Y001830D01*
X000819Y001851D01*
X001410Y001550D02*
X001410Y002250D01*
X000850Y002810D01*
X000819Y002851D01*
X001255Y003105D02*
X002770Y003105D01*
X002770Y003007D02*
X001296Y003007D01*
X001319Y002950D02*
X001243Y003134D01*
X001103Y003275D01*
X000967Y003331D01*
X001209Y003331D01*
X001247Y003341D01*
X001281Y003361D01*
X001309Y003389D01*
X001329Y003423D01*
X001339Y003461D01*
X001339Y003801D01*
X000869Y003801D01*
X000869Y003901D01*
X001339Y003901D01*
X001339Y004109D01*
X002396Y004109D01*
X002396Y004052D01*
X002704Y004052D01*
X002704Y004014D01*
X002396Y004014D01*
X002396Y003876D01*
X002406Y003838D01*
X002426Y003803D01*
X002454Y003775D01*
X002469Y003766D01*
X002416Y003713D01*
X002416Y003330D01*
X002492Y003254D01*
X002742Y003254D01*
X002770Y003225D01*
X002770Y002105D01*
X002953Y001922D01*
X002953Y001730D01*
X001590Y001730D01*
X001590Y002325D01*
X001274Y002641D01*
X001319Y002751D01*
X001319Y002950D01*
X001319Y002908D02*
X002770Y002908D01*
X002770Y002810D02*
X001319Y002810D01*
X001303Y002711D02*
X002770Y002711D01*
X002770Y002613D02*
X001302Y002613D01*
X001401Y002514D02*
X002770Y002514D01*
X002770Y002416D02*
X001499Y002416D01*
X001590Y002317D02*
X002770Y002317D01*
X002770Y002219D02*
X001590Y002219D01*
X001590Y002120D02*
X002770Y002120D01*
X002854Y002022D02*
X001590Y002022D01*
X001590Y001923D02*
X002952Y001923D01*
X002953Y001825D02*
X001590Y001825D01*
X001410Y001550D02*
X003090Y001550D01*
X003142Y001489D01*
X003508Y001529D02*
X004429Y001529D01*
X004429Y001535D02*
X004429Y001422D01*
X004289Y001422D01*
X004284Y001416D01*
X004279Y001422D01*
X003974Y001422D01*
X003969Y001416D01*
X003964Y001422D01*
X003659Y001422D01*
X003654Y001416D01*
X003649Y001422D01*
X003508Y001422D01*
X003508Y001535D01*
X003615Y001535D01*
X003653Y001546D01*
X003654Y001546D01*
X003655Y001546D01*
X003693Y001535D01*
X003811Y001535D01*
X003811Y001922D01*
X003811Y001922D01*
X003496Y001922D01*
X003496Y002308D01*
X003378Y002308D01*
X003340Y002298D01*
X003323Y002288D01*
X003130Y002288D01*
X003130Y003120D01*
X004660Y003120D01*
X004660Y002288D01*
X004615Y002288D01*
X004598Y002298D01*
X004560Y002308D01*
X004441Y002308D01*
X004323Y002308D01*
X004285Y002298D01*
X004268Y002288D01*
X003985Y002288D01*
X003968Y002298D01*
X003930Y002308D01*
X003811Y002308D01*
X003693Y002308D01*
X003655Y002298D01*
X003654Y002297D01*
X003653Y002298D01*
X003615Y002308D01*
X003496Y002308D01*
X003496Y001922D01*
X003496Y001922D01*
X003496Y001922D01*
X003563Y001922D01*
X003811Y001922D01*
X003811Y002308D01*
X003811Y001922D01*
X003811Y001922D01*
X003811Y001922D01*
X003811Y001535D01*
X003930Y001535D01*
X003968Y001546D01*
X003985Y001555D01*
X004268Y001555D01*
X004285Y001546D01*
X004323Y001535D01*
X004429Y001535D01*
X004429Y001431D02*
X003508Y001431D01*
X003811Y001628D02*
X003811Y001628D01*
X003811Y001726D02*
X003811Y001726D01*
X003811Y001825D02*
X003811Y001825D01*
X003811Y001923D02*
X003811Y001923D01*
X003811Y002022D02*
X003811Y002022D01*
X003811Y002120D02*
X003811Y002120D01*
X003811Y002219D02*
X003811Y002219D01*
X003496Y002219D02*
X003496Y002219D01*
X003496Y002120D02*
X003496Y002120D01*
X003496Y002022D02*
X003496Y002022D01*
X003496Y001923D02*
X003496Y001923D01*
X003181Y001922D02*
X003160Y001970D01*
X002950Y002180D01*
X002950Y003300D01*
X004840Y003300D01*
X004840Y002040D01*
X004770Y001970D01*
X004756Y001922D01*
X004441Y001922D02*
X004441Y001922D01*
X004441Y002308D01*
X004441Y001922D01*
X004441Y001923D02*
X004441Y001923D01*
X004441Y002022D02*
X004441Y002022D01*
X004441Y002120D02*
X004441Y002120D01*
X004441Y002219D02*
X004441Y002219D01*
X004660Y002317D02*
X003130Y002317D01*
X003130Y002416D02*
X004660Y002416D01*
X004660Y002514D02*
X003130Y002514D01*
X003130Y002613D02*
X004660Y002613D01*
X004660Y002711D02*
X003130Y002711D01*
X003130Y002810D02*
X004660Y002810D01*
X004660Y002908D02*
X003130Y002908D01*
X003130Y003007D02*
X004660Y003007D01*
X004660Y003105D02*
X003130Y003105D01*
X002950Y003300D02*
X002740Y003510D01*
X002723Y003521D01*
X003030Y003499D02*
X003346Y003499D01*
X003346Y003480D02*
X003030Y003480D01*
X003030Y003713D01*
X002977Y003766D01*
X002992Y003775D01*
X003020Y003803D01*
X003040Y003838D01*
X003050Y003876D01*
X003050Y004014D01*
X002742Y004014D01*
X002742Y004052D01*
X003050Y004052D01*
X003050Y004109D01*
X003346Y004109D01*
X003346Y003853D01*
X003722Y003853D01*
X003722Y003753D01*
X003346Y003753D01*
X003346Y003480D01*
X003346Y003598D02*
X003030Y003598D01*
X003030Y003696D02*
X003346Y003696D01*
X003346Y003893D02*
X003050Y003893D01*
X003050Y003992D02*
X003346Y003992D01*
X003346Y004090D02*
X003050Y004090D01*
X003011Y003795D02*
X003722Y003795D01*
X003822Y003795D02*
X004469Y003795D01*
X004469Y003893D02*
X004198Y003893D01*
X004198Y003853D02*
X004198Y004109D01*
X004469Y004109D01*
X004469Y003480D01*
X004198Y003480D01*
X004198Y003753D01*
X003822Y003753D01*
X003822Y003853D01*
X004198Y003853D01*
X004198Y003992D02*
X004469Y003992D01*
X004469Y004090D02*
X004198Y004090D01*
X004198Y003696D02*
X004469Y003696D01*
X004469Y003598D02*
X004198Y003598D01*
X004198Y003499D02*
X004469Y003499D01*
X004840Y003300D02*
X004840Y003790D01*
X004874Y003803D01*
X004910Y003860D01*
X006870Y003860D01*
X006922Y003851D01*
X006922Y002851D02*
X006870Y002810D01*
X006380Y002320D01*
X006380Y001550D01*
X004840Y001550D01*
X004796Y001489D01*
X004770Y001060D02*
X004756Y001055D01*
X004770Y001060D02*
X006380Y001060D01*
X006380Y001270D01*
X006870Y001760D01*
X006870Y001830D01*
X006922Y001851D01*
X006922Y000851D02*
X006870Y000850D01*
X006870Y000640D01*
X004630Y000640D01*
X004490Y000780D01*
X004490Y000990D01*
X004441Y001055D01*
X000850Y000850D02*
X000819Y000851D01*
X001174Y003204D02*
X002770Y003204D01*
X002443Y003302D02*
X001037Y003302D01*
X001316Y003401D02*
X002416Y003401D01*
X002416Y003499D02*
X001339Y003499D01*
X001339Y003598D02*
X002416Y003598D01*
X002416Y003696D02*
X001339Y003696D01*
X001339Y003795D02*
X002434Y003795D01*
X002396Y003893D02*
X000869Y003893D01*
X001339Y003992D02*
X002396Y003992D01*
X002396Y004090D02*
X001339Y004090D01*
D17*
X003300Y002670D03*
M02*
